<svg width="420" height="258" viewBox="0 0 516 258" fill="none" xmlns="http://www.w3.org/2000/svg">
<path d="M22.3891 228.911C22.19 217.248 87.7488 208.784 173.541 207.308C259.334 205.825 340.333 206.698 340.539 218.354C340.738 230.018 262.783 256.439 176.998 257.922C91.2052 259.405 22.5954 240.575 22.3962 228.911H22.3891Z" fill="#833D41"/>
<path d="M513.227 118.432C513.227 118.432 492.915 88.0314 343.469 64.8245C222.799 46.0803 90.8924 49.2587 22.9795 106.371C-35.7162 155.729 21.1944 245.088 157.667 236.049C261.773 229.16 314.758 206.982 395.131 161.668C464.602 122.505 482.46 140.242 499.863 138.39C517.266 136.538 516.577 123.619 513.22 118.425L513.227 118.432Z" fill="#6B4B3C"/>
<path d="M383.879 89.6133C383.879 89.6133 370.032 75.1259 270.627 68.6626C190.361 63.4409 102.911 69.5565 58.5817 100.419C20.2621 127.088 59.1151 169.763 149.516 160.568C218.482 153.551 253.345 140.66 306.095 115.268C351.683 93.3239 363.745 101.568 375.267 100.05C386.226 98.6024 386.17 92.0965 383.879 89.6204V89.6133Z" fill="#503D35"/>
<path d="M498.91 217.894C498.91 224.875 476.279 229.267 446.722 229.267C417.164 229.267 389.271 227.911 389.271 220.923C389.271 213.935 416.275 198.922 445.833 198.922C475.39 198.922 498.91 210.905 498.91 217.887V217.894Z" fill="#833D41"/>
<path d="M363.867 94.6649C363.867 94.6649 374.513 36.9776 376.334 36.332C376.334 36.332 478.726 -1.23465 479.729 0.0282113C481.13 1.7948 472.29 17.9211 472.29 17.9211C472.29 17.9211 486.3 13.3805 487.068 13.7991C488.484 14.5582 502.928 112.962 504.614 124.945C506.598 125.86 513.077 127.23 512.501 129.578L494.529 189.663C494.344 190.423 467.368 226.414 464.601 226.414H464.559C463.108 226.414 460.761 216.787 450.456 201.256L420.635 202.129C420.635 202.129 408.943 218.319 408.793 218.319C407.321 218.319 359.635 166.038 359.635 166.038C358.931 165.272 352.004 117.262 352.004 117.262C351.591 114.573 351.975 110.046 360.211 115.914L363.874 94.6507L363.867 94.6649Z" fill="#B75454"/>
<path d="M377.813 38.0843L364.087 118.908L421.794 171.437C421.794 171.437 503.405 132.898 503.291 129.081C503.177 125.264 483.576 19.0562 483.576 19.0562C483.576 19.0562 455.313 30.9754 457.61 29.599C459.907 28.2226 475.995 3.29883 475.995 3.29883L377.806 38.0914L377.813 38.0843Z" fill="#E39E9E"/>
<path d="M493.91 128.755C490.119 113.743 486.833 111.579 485.212 111.629C484.927 111.636 484.65 111.7 484.387 111.813C480.987 113.275 479.7 125.91 479.309 131.281L479.181 132.991L494.244 130.111L493.903 128.763L493.91 128.755Z" fill="#B75454"/>
<path d="M492.629 129.075C492.629 129.075 488.533 112.842 485.247 112.934C481.961 113.033 480.617 131.366 480.617 131.366L492.629 129.067V129.075Z" fill="#FCFBE2"/>
<path d="M369.065 122.419L369.499 121.093C371.924 113.643 375.459 104.704 378.51 104.413C378.98 104.37 379.435 104.484 379.833 104.739C382.77 106.662 383.666 119.17 383.915 124.456L384.001 126.229L369.073 122.412L369.065 122.419Z" fill="#B75454"/>
<path d="M370.751 121.497C370.751 121.497 376.419 104.079 379.115 105.846C381.81 107.606 382.6 124.526 382.6 124.526L370.751 121.497Z" fill="#FCFBE2"/>
<path d="M354.152 113.828C354.152 113.828 375.253 126.059 417.385 130.742C459.517 135.417 508.127 126.229 508.127 126.229L492.701 188.578C492.701 188.578 464.388 223.328 464.552 220.795C464.715 218.262 452.156 198.007 452.156 198.007L418.544 200.192L408.644 215.843L361.413 163.555L354.145 113.821L354.152 113.828Z" fill="#B75454"/>
<path d="M353.66 115.233C353.66 115.233 374.157 128.394 416.232 133.239C458.307 138.085 507.387 128.337 507.387 128.337L492.366 189.536C492.366 189.536 464.324 223.534 464.473 221.044C464.622 218.554 451.97 198.568 451.97 198.568L418.444 200.519L408.658 215.85L361.213 164.172L353.66 115.24V115.233Z" fill="#E29697"/>
<path d="M501.037 129.464C495.326 145.378 488.598 163.604 480.205 178.34C477.417 183.235 474.665 191.025 469.061 193.402C464.139 195.488 457.539 193.104 452.668 191.919C444.162 189.855 437.007 190.678 428.408 192.246C421.19 193.558 413.43 195.318 406.084 194.034C398.075 192.636 392.727 185.981 386.597 181.263C379.314 175.651 371.121 170.727 363.027 166.137L408.665 215.85L418.451 200.518L451.978 198.567C451.978 198.567 464.63 218.553 464.481 221.043C464.331 223.534 492.374 189.536 492.374 189.536L507.395 128.336" fill="#D47F7F"/>
<path d="M407.52 198.922C423.038 203.448 451.707 203.207 462.972 195.68L407.52 198.922Z" fill="#B75454"/>
<path d="M408.786 19.8016C402.236 21.7242 395.778 23.9094 389.406 26.3571C385.402 27.8966 382.998 21.6888 387.016 20.1421C393.388 17.6944 412.918 18.5884 408.786 19.8016Z" fill="#27292A"/>
<path d="M462.112 16.9565C453.67 14.601 445.157 12.5932 436.551 10.926C431.146 9.87593 432.767 1.48996 438.194 2.53998C446.8 4.20724 467.439 18.4393 462.112 16.9565Z" fill="#27292A"/>
<path d="M412.733 79.248C412.733 91.2948 410.671 101.057 408.132 101.057C405.593 101.057 403.53 91.2948 403.53 79.248C403.53 67.2011 405.593 63.5615 408.132 63.5615C410.671 63.5615 412.733 67.2011 412.733 79.248Z" fill="#27292A"/>
<path d="M447.64 80.4542C447.64 92.5011 445.577 102.263 443.038 102.263C440.499 102.263 438.437 92.5011 438.437 80.4542C438.437 68.4074 440.499 58.645 443.038 58.645C445.577 58.645 447.64 68.4074 447.64 80.4542Z" fill="#27292A"/>
<path d="M407.165 72.0966C408.033 72.0966 408.736 70.6767 408.736 68.9253C408.736 67.1738 408.033 65.7539 407.165 65.7539C406.296 65.7539 405.593 67.1738 405.593 68.9253C405.593 70.6767 406.296 72.0966 407.165 72.0966Z" fill="#924948"/>
<path d="M441.985 68.9325C442.853 68.9325 443.557 67.5127 443.557 65.7612C443.557 64.0097 442.853 62.5898 441.985 62.5898C441.117 62.5898 440.413 64.0097 440.413 65.7612C440.413 67.5127 441.117 68.9325 441.985 68.9325Z" fill="#924948"/>
<path d="M456.757 133.473C464.296 135.077 475.142 144.619 478.918 160.277C481.784 172.168 469.765 178.944 452.091 141.796C447.504 132.154 441.182 131.82 441.182 131.82C441.182 131.82 449.211 131.863 456.75 133.466L456.757 133.473Z" fill="#D47F7F"/>
<path d="M457.418 132.196C464.957 133.8 474.765 142.647 478.541 158.305C481.407 170.196 472.453 177.766 453.884 140.923C448.564 131.373 441.182 131.82 441.182 131.82C441.182 131.82 449.88 130.593 457.418 132.196Z" fill="#DF655E"/>
<g opacity="0.44">
<path d="M472.56 162.193C474.9 163.768 476.848 165.158 474.935 165.187C473.022 165.215 469.651 162.094 469.864 160.93C470.085 159.766 470.213 160.618 472.553 162.193H472.56Z" fill="#E49460"/>
</g>
</svg>
